:SAMPLES-PER-SECOND 30
:FULLY-SPECIFIED
:DEGREES
116
root  -34.9727 39.9035 -2.15108 173.256 5.71397 173.948
RightUpLeg  -23.4391 -9.02745 -3.75593
RightLeg  29.4924 -3.40036 -2.44683
RightFoot  -0.854364 -0.274745 2.93028
RightToes  2.32829e-010 0 -3.6325e-017
Spine  7.49394 -0.360059 -5.12599
Spine1  7.77519 -1.1616 1.54532
HEad  -1.40593 1.89138 -0.410837
LeftShoulder1  8.00799 -11.5306 -46.4576
LeftArm  -13.9617 15.9436 -23.3947
LeftForeArm  32.3191 -42.8411 -8.21137
LeftHand  -0.244104 0.0205437 5.32207
RightShoulder  6.30627 9.60367 41.8567
RightArm  8.15056 -17.9141 33.833
RightForeArm  -3.20035 24.7177 5.45424
RightHand  -0.83421 0.464619 -16.5863
LeftUpLeg  5.0458 7.92838 -5.85499
LeftLeg  17.9062 6.17499 0.679813
LeftFoot  -16.2002 0.187296 2.12579
LeftToes  -2.63786e-011 3.77076e-011 -4.2586e-012
117
root  -35.0173 39.6789 -3.67556 172.912 4.53893 173.428
RightUpLeg  -22.8305 -11.623 -3.67836
RightLeg  17.1403 -2.96677 -0.628962
RightFoot  -1.24735 -0.31332 3.44482
RightToes  2.32829e-010 0 -3.6325e-017
Spine  6.78902 -0.463143 -6.23248
Spine1  8.48972 -1.43703 2.32589
HEad  -1.64866 1.25901 -0.507255
LeftShoulder1  8.1342 -11.6554 -46.8104
LeftArm  -12.7065 14.9491 -24.0781
LeftForeArm  33.1217 -43.986 -8.53629
LeftHand  -0.244104 0.0205437 5.32207
RightShoulder  6.36912 9.6855 42.023
RightArm  7.76279 -17.2415 34.2616
RightForeArm  -2.88234 24.1676 5.31386
RightHand  -0.859527 0.712877 -16.3989
LeftUpLeg  8.34628 7.43976 -6.19951
LeftLeg  17.2544 5.53741 -0.0458312
LeftFoot  -17.8969 0.245557 2.41454
LeftToes  -2.63786e-011 3.77076e-011 -4.2586e-012
118
root  -35.036 39.4117 -5.26406 172.904 3.00072 172.884
RightUpLeg  -21.2539 -9.30581 -6.01804
RightLeg  4.15882 -6.02879 2.11089
RightFoot  -1.61421 -0.375705 4.26544
RightToes  2.32829e-010 0 -3.6325e-017
Spine  5.5973 -0.601794 -6.97468
Spine1  9.19281 -1.62685 2.8631
HEad  -1.6841 0.244166 -0.431171
LeftShoulder1  8.28171 -11.8051 -47.2028
LeftArm  -10.8995 13.9441 -24.5624
LeftForeArm  33.3118 -43.9247 -8.50472
LeftHand  -0.244104 0.0205437 5.32207
RightShoulder  6.41156 9.72113 42.2009
RightArm  7.93436 -16.7584 34.5546
RightForeArm  -2.12178 22.9011 5.09386
RightHand  -0.830061 0.749029 -15.7568
LeftUpLeg  11.4248 7.1299 -6.51519
LeftLeg  16.6378 4.54238 -0.493287
LeftFoot  -19.5571 0.285027 2.3372
LeftToes  -2.63786e-011 3.77076e-011 -4.2586e-012
119
root  -35.037 38.9747 -6.98794 173.06 1.28171 172.296
RightUpLeg  -20.6147 -7.71472 -8.1802
RightLeg  -4.94887 -7.30629 3.7712
RightFoot  -3.04337 -0.481804 6.49833
RightToes  2.32829e-010 0 -3.6325e-017
Spine  4.08279 -0.811263 -7.14581
Spine1  9.53902 -1.54605 2.32991
HEad  -1.56538 -1.18472 -0.247282
LeftShoulder1  8.3785 -11.8864 -47.5084
LeftArm  -8.65664 12.8044 -24.9851
LeftForeArm  33.1184 -42.4047 -8.02246
LeftHand  -0.244104 0.0205437 5.32207
RightShoulder  6.44342 9.70257 42.4883
RightArm  7.85216 -16.5972 34.5156
RightForeArm  -1.33087 21.2527 5.17719
RightHand  -0.808587 0.735397 -15.3893
LeftUpLeg  14.0749 7.18849 -6.65877
LeftLeg  17.2313 2.97798 -0.734722
LeftFoot  -22.2112 0.309142 1.86041
LeftToes  -2.63786e-011 3.77076e-011 -4.2586e-012
120
root  -35.0183 38.461 -8.78889 173.095 -0.281067 171.855
RightUpLeg  -21.677 -8.59159 -9.14224
RightLeg  -5.92465 -5.83493 3.73532
RightFoot  -6.14802 -0.466361 9.16359
RightToes  2.32829e-010 0 -3.6325e-017
Spine  2.83181 -0.974739 -6.68988
Spine1  9.79364 -1.28209 1.15814
HEad  -1.74314 -2.64925 -0.177072
LeftShoulder1  8.40363 -11.8741 -47.6916
LeftArm  -6.79437 11.8087 -25.6554
LeftForeArm  32.8258 -39.903 -7.27253
LeftHand  -0.244104 0.0205437 5.32207
RightShoulder  6.49568 9.73625 42.7394
RightArm  7.21197 -16.5872 34.2162
RightForeArm  -0.463353 19.5433 5.57525
RightHand  -0.790708 0.6887 -15.1648
LeftUpLeg  16.8208 7.78409 -6.15517
LeftLeg  18.3181 0.555785 -1.13371
LeftFoot  -24.6647 0.258371 0.941987
LeftToes  -2.63786e-011 3.77076e-011 -4.2586e-012
121
root  -34.979 38.0819 -10.5742 173.07 -1.84566 172.124
RightUpLeg  -21.835 -9.07951 -9.38846
RightLeg  -4.00217 -5.34466 3.51223
RightFoot  -6.06494 -0.450931 8.92567
RightToes  2.32829e-010 0 -3.6325e-017
Spine  1.91416 -1.14953 -5.41968
Spine1  10.4932 -1.35883 0.564249
HEad  -2.28918 -3.64944 -0.454942
LeftShoulder1  8.4697 -11.8922 -48.0137
LeftArm  -5.55859 11.6057 -26.3064
LeftForeArm  32.1041 -36.9819 -6.49054
LeftHand  -0.244104 0.0205437 5.32207
RightShoulder  6.54863 9.82146 42.8169
RightArm  6.37876 -16.5779 33.7419
RightForeArm  0.949747 17.9334 6.08017
RightHand  -0.758518 0.607628 -14.7458
LeftUpLeg  19.759 8.32992 -4.58698
LeftLeg  18.973 -2.17326 -1.49036
LeftFoot  -25.3629 0.108785 -0.359927
LeftToes  -2.63786e-011 3.77076e-011 -4.2586e-012
122
root  -34.9172 37.8659 -12.4241 173.274 -3.52966 173.316
RightUpLeg  -22.6068 -9.00004 -8.59032
RightLeg  0.852871 -6.26765 2.81525
RightFoot  -1.44245 -0.441125 5.23783
RightToes  2.32829e-010 0 -3.6325e-017
Spine  0.53633 -1.55393 -3.113
Spine1  11.2851 -1.7689 0.273119
HEad  -2.51579 -4.09689 -1.10177
LeftShoulder1  8.61349 -11.9577 -48.6282
LeftArm  -4.33712 12.5453 -26.6011
LeftForeArm  30.5209 -33.3844 -5.65237
LeftHand  -0.244104 0.0205437 5.32207
RightShoulder  6.56377 9.82346 42.9155
RightArm  5.21873 -16.7002 32.9195
RightForeArm  3.39855 16.1769 6.63444
RightHand  -0.724852 0.534544 -14.2686
LeftUpLeg  22.3225 7.87181 -2.2511
LeftLeg  19.5445 -3.96616 -1.50524
LeftFoot  -24.6963 -0.126048 -2.33733
LeftToes  -2.63786e-011 3.77076e-011 -4.2586e-012
123
root  -34.8737 37.7694 -14.3641 173.617 -4.12389 175.392
RightUpLeg  -24.6014 -8.99539 -6.04592
RightLeg  7.22168 -6.05016 1.52414
RightFoot  6.02894 -0.112493 0.97636
RightToes  2.32829e-010 0 -3.6325e-017
Spine  -1.12787 -1.72798 1.15978
Spine1  11.3908 -1.6938 -0.881061
HEad  -1.98836 -4.07756 -1.98867
LeftShoulder1  8.65548 -11.8596 -49.1787
LeftArm  -3.14963 14.4874 -27.0447
LeftForeArm  28.1254 -28.6307 -4.63689
LeftHand  -0.244104 0.0205437 5.32207
RightShoulder  6.54764 9.70706 43.2035
RightArm  2.80242 -16.9386 31.7119
RightForeArm  7.04499 13.7564 7.22667
RightHand  -0.693328 0.407971 -13.9417
LeftUpLeg  24.1133 6.9599 0.587814
LeftLeg  20.8018 -4.09781 -1.36459
LeftFoot  -22.9489 -0.426112 -5.58718
LeftToes  -2.63786e-011 3.77076e-011 -4.2586e-012
124
root  -34.8413 37.7403 -16.2867 173.833 -2.8967 177.735
RightUpLeg  -26.7013 -9.80745 -1.96329
RightLeg  13.4035 -2.76954 0.277812
RightFoot  11.7001 0.344067 -1.33663
RightToes  2.32829e-010 0 -3.6325e-017
Spine  -1.92123 -1.29199 6.5747
Spine1  10.6171 -0.839139 -2.74575
HEad  -1.44275 -3.48717 -3.00968
LeftShoulder1  8.47087 -11.5197 -49.2142
LeftArm  -3.53296 17.1222 -28.3222
LeftForeArm  25.5906 -23.2038 -3.80533
LeftHand  -0.244104 0.0205437 5.32207
RightShoulder  6.52176 9.61676 43.3358
RightArm  -0.76641 -16.8706 30.6212
RightForeArm  10.6054 10.8569 7.53156
RightHand  -0.652028 0.133011 -13.7499
LeftUpLeg  24.365 7.27505 3.77376
LeftLeg  24.677 -3.11178 -1.21936
LeftFoot  -18.3014 -0.443738 -9.32615
LeftToes  -2.63786e-011 3.77076e-011 -4.2586e-012
125
root  -34.7637 37.7628 -18.0386 173.926 -1.45213 179.861
RightUpLeg  -27.4398 -10.1106 1.5072
RightLeg  18.4244 -0.0891597 -0.230423
RightFoot  12.4673 0.636578 -2.63008
RightToes  2.32829e-010 0 -3.6325e-017
Spine  -1.43996 -0.917933 10.7864
Spine1  9.59711 -0.145941 -3.68271
HEad  -1.96261 -2.49971 -3.96686
LeftShoulder1  8.2618 -11.2373 -48.9179
LeftArm  -6.83612 19.9467 -29.935
LeftForeArm  24.4898 -18.2158 -4.05566
LeftHand  -0.244104 0.0205437 5.32207
RightShoulder  6.48009 9.64505 42.9448
RightArm  -3.62328 -16.2332 30.076
RightForeArm  11.4731 8.85738 7.36939
RightHand  -0.633936 -0.0742818 -13.8744
LeftUpLeg  21.4528 8.07761 6.70403
LeftLeg  33.043 -1.10555 -0.369309
LeftFoot  -8.30544 0.315494 -10.8966
LeftToes  -2.63786e-011 3.77076e-011 -4.2586e-012
126
root  -34.6554 37.8084 -19.5087 174.089 -1.83287 -177.971
RightUpLeg  -27.0662 -9.87644 3.55321
RightLeg  22.1682 -0.459725 -0.447595
RightFoot  9.75358 0.80878 -3.9865
RightToes  2.32829e-010 0 -3.6325e-017
Spine  -0.388209 -1.19989 13.538
Spine1  8.956 -0.338832 -2.97062
HEad  -3.58616 -1.9539 -4.41965
LeftShoulder1  8.28276 -11.3106 -48.7987
LeftArm  -9.35613 22.1663 -30.8341
LeftForeArm  23.9188 -14.4611 -4.72938
LeftHand  -0.244104 0.0205437 5.32207
RightShoulder  6.41408 9.68048 42.3573
RightArm  -4.73032 -15.3421 29.7104
RightForeArm  8.82821 8.98749 7.24662
RightHand  -0.70878 0.229626 -14.6685
LeftUpLeg  14.7831 6.87402 8.64691
LeftLeg  44.5447 1.49113 2.00715
LeftFoot  4.61898 1.22667 -9.06682
LeftToes  -2.63786e-011 3.77076e-011 -4.2586e-012
127
root  -34.5734 37.8949 -20.7376 174.239 -3.9052 -175.898
RightUpLeg  -26.4524 -10.7107 5.16086
RightLeg  24.8516 -1.7105 -1.09558
RightFoot  6.59615 0.808153 -4.8147
RightToes  2.32829e-010 0 -3.6325e-017
Spine  0.813872 -1.82891 15.868
Spine1  8.49807 -0.835885 -1.97052
HEad  -5.46407 -2.565 -4.03028
LeftShoulder1  8.4693 -11.6015 -48.9401
LeftArm  -8.78129 23.2029 -30.7498
LeftForeArm  24.4502 -12.1694 -5.34558
LeftHand  -0.244104 0.0205437 5.32207
RightShoulder  6.35978 9.63323 42.1358
RightArm  -3.98369 -14.5623 28.9886
RightForeArm  4.02571 11.1374 7.27372
RightHand  -0.872906 1.00936 -15.9041
LeftUpLeg  6.23705 3.97369 9.53319
LeftLeg  55.9566 2.87488 5.06037
LeftFoot  12.3526 1.15035 -5.77813
LeftToes  -2.63786e-011 3.77076e-011 -4.2586e-012
128
root  -34.5078 38.185 -21.944 174.037 -5.64374 -174.915
RightUpLeg  -24.6314 -11.7215 5.68717
RightLeg  25.8252 -2.57336 -1.59536
RightFoot  4.32565 0.688397 -4.77707
RightToes  2.32829e-010 0 -3.6325e-017
Spine  2.14616 -1.95627 17.3474
Spine1  7.89413 -0.751282 -1.90836
HEad  -7.01893 -4.0855 -3.03254
LeftShoulder1  8.59136 -11.7839 -49.0551
LeftArm  -7.46518 23.3462 -30.4091
LeftForeArm  27.0392 -11.4961 -5.70776
LeftHand  -0.244104 0.0205437 5.32207
RightShoulder  6.34879 9.61856 42.1081
RightArm  -1.67816 -13.7318 28.1503
RightForeArm  -0.785316 14.0679 7.01889
RightHand  -1.00987 1.59638 -16.8698
LeftUpLeg  -1.54573 1.98526 9.15138
LeftLeg  64.4861 2.95941 7.36266
LeftFoot  12.1612 0.477795 -2.59749
LeftToes  -2.63786e-011 3.77076e-011 -4.2586e-012
